<svg xmlns="http://www.w3.org/2000/svg" width="64" height="64" fill="none" viewBox="0 0 64 64">
  <g class="iconmonstr-gamepad-17 1" clip-path="url(#a)">
    <path fill="#8139A0" d="M46.992 8c-5.101 0-6.821 3.685-14.995 3.685C23.973 11.685 22.008 8 17.003 8 3.112 8 0 35.667 0 46.261 0 51.981 2.179 56 6.584 56c9.221 0 7.803-13.333 18.44-13.333h13.947C49.608 42.667 48.189 56 57.41 56c4.406 0 6.59-4.016 6.59-9.736C64 35.669 60.883 8 46.992 8ZM18.667 34.667a8 8 0 0 1-8-8 8 8 0 0 1 8-8 8 8 0 0 1 8 8 8 8 0 0 1-8 8Zm26.666-16a2.666 2.666 0 1 1 0 5.333 2.666 2.666 0 1 1 0-5.333ZM40 29.333A2.666 2.666 0 1 1 40 24a2.666 2.666 0 1 1 0 5.333Zm5.333 5.334a2.666 2.666 0 1 1 0-5.334 2.666 2.666 0 1 1 0 5.334Zm5.334-5.334a2.666 2.666 0 1 1 0-5.333 2.666 2.666 0 1 1 0 5.333Zm-27.334-2.666a4.672 4.672 0 0 1-4.666 4.666A4.672 4.672 0 0 1 14 26.667 4.672 4.672 0 0 1 18.667 22a4.672 4.672 0 0 1 4.666 4.667Z" class="Vector"/>
  </g>
  <defs>
    <clipPath id="a" class="a">
      <path fill="#fff" d="M0 0h64v64H0z"/>
    </clipPath>
  </defs>
</svg>
